/* XPM */
static const char *player_game[] = {
/* columns rows colors chars-per-pixel */
"53 53 36 1 ",
"  c black",
". c #070606",
"X c #0B0B0B",
"o c #0F0D0D",
"O c #121110",
"+ c #161413",
"@ c #191616",
"# c #251A17",
"$ c #211C1B",
"% c #211F1F",
"& c #2E2726",
"* c #35302F",
"= c #373434",
"- c #3F3938",
"; c #5A4038",
": c #474545",
"> c #575656",
", c #585251",
"< c #7B5A4C",
"1 c #676262",
"2 c #7B726E",
"3 c #9C7564",
"4 c #AE8E79",
"5 c #D58777",
"6 c #8B8A89",
"7 c #A4A3A3",
"8 c #BCBCBC",
"9 c #C8A38B",
"0 c #F3A490",
"q c #DEBAA0",
"w c #FAC7A6",
"e c #FDDBBA",
"r c #D3D3D2",
"t c #FFF2D0",
"y c #F3F3F2",
"u c white",
/* pixels */
"                       @*-:11221,:-*%o               ",
"                  o&----:-*--:,,:::::,&              ",
"           +   @%%&&&%@@@@@@ooo@@@%%%*@              ",
"         o  o@%%%@@@@%%%%%%%%%%%@%@%%% %             ",
"          %%@@%@%%%%%%%@%%%%%%%%%%%%%% *             ",
"        *%@@@%%%%@%%%%%%@@oo     ooooo o             ",
"       %&@@@@@@%%%%%@o    o&&&&*%o%@oo               ",
"        %@o@%%%%@oo  o%;-&,,,;;,,-*-;* @             ",
"        %%%%%%o  @%*-;-&&*&&&&&&&*-*@@ %             ",
"        @%@@   *,;-**&******&**&*&**%& %             ",
"         o  o@*;-&&&&&&&&&*&&&&***;-*-oo.            ",
"          o@&&&@%&&&&&&&&**-;--;---%%%o >            ",
"         @%%%%%%%%&&&*--;-*&%@oo         =           ",
"         %&%%&%%%&&-;-&@o oo@%&&&*-::,::%        o   ",
"         %%%%%%&%@@oooo%*---&%%@@@%%%*:1212221,-&o   ",
"         @&%&**%ooo%&*&%o   o%;<<<,<<;o  @@@@@%%%o  .",
"         @&&&o  &-*&@  o&<4qqqwq9q4qqqw4& o@oo       ",
"         @@  o&-*@   @-<233<*3q42439-&,<;o@          ",
"           @*:*o o*o%&*&%%%*%,3<39<<-****** X        ",
"         @*:&o o << &-:,11,1-*<400<-*1111,- O        ",
"        *:&o o%% << %*-*-*-%o<www0<,&%&&&%@          ",
"      o:-@  @*** 3w*  o@%@o -qw000<-;%@oo            ",
"   O %:&   @&--* 4eq<@oo;<<<9w05503@;<;@;;           ",
"    -*o     o&-- 4ew9-  3949q950000;*3< -<           ",
"  o-% o @3w5@o-- 3twq-  394ww35w0505*3; *2o          ",
"  %     305t4 *,o<tew<  49qtq353;&;<o44 ;3@          ",
"   Oo.  3* &<@*1*-teeq;<qeee9*;o &&  9t<32%          ",
"        <;<oo@&,: 3yttyytewww<*-<<<;3ettq;-          ",
"        ;30;  %:,&o9teqqewwweeq994449q9q: : X        ",
"         <05  @:,,@o-&o&qq2;%o@@%%&&&@o2%o,          ",
"O      .  ;003@-,,,*%* ,q9@o;<35990953o2,*2          ",
"           &5<o-1,,,1,@3993333<<<<33<*%32@1o         ",
"             o@:,,:,1*%443444994421,,34<* ,oX        ",
"              o-1:,,,o<93249qeeettq9ett4@ %          ",
"               *%o*,@ -322349qwqqe44eee2o            ",
"                  &o   @*-<3449994*-442&             ",
"                    @&@   @&&-;:-* o&@               ",
"               .  o-,,,&%%o                          ",
"                  o@%*,:&-- 6q, %oo                  ",
"                  ;;;%o-&%* 6ur *&   .               ",
"                %9eeww3%@@- 1uu%@- &9@               ",
"               #weeweee< o:  ::  * %w9               ",
"             Xowewwwwee0 o*        &4q@              ",
"              300wwwewe0   o8r8e4  %<4*              ",
"              <;weeeeww5   %u7*6ro oo<&              ",
"              @<w5ww5003    :;&*-  *;$               ",
"             X 4w;05%3w;  @o @oo@@ -<                ",
"               %4@w5 30o %:::-****                   ",
"                  3< %& o%:::%o%&%                   ",
"                       o%*-:*  *:%                   ",
"                    X @%@oo    o@o                   ",
"                      o@%:6,  @-12                   ",
"X                     %*,284@ &,26                   "
};
