/* XPM */
static const char *player_03[] = {
/* columns rows colors chars-per-pixel */
"33 34 100 2 ",
"   c black",
".  c #010104",
"X  c #040404",
"o  c #060809",
"O  c #06080C",
"+  c gray3",
"@  c #0E0E0E",
"#  c #0B1012",
"$  c #0B131E",
"%  c #131313",
"&  c #161617",
"*  c #1B1B1B",
"=  c gray11",
"-  c #1F211B",
";  c #25351D",
":  c #0F1A2A",
">  c #1E2628",
",  c #18222F",
"<  c #1D2937",
"1  c #202020",
"2  c #272727",
"3  c #24333C",
"4  c #323334",
"5  c gray21",
"6  c gray22",
"7  c #324528",
"8  c #041B44",
"9  c #1D2E46",
"0  c #06265F",
"q  c #223042",
"w  c #313E42",
"e  c #3A3D41",
"r  c #3E3E54",
"t  c #0A3D7C",
"y  c #21266C",
"u  c #272D7F",
"i  c #2F424D",
"p  c #3C4648",
"a  c #2F435D",
"s  c #374D5B",
"d  c #424546",
"f  c #444444",
"g  c #474A4C",
"h  c #4D4F50",
"j  c #515254",
"k  c #525557",
"l  c #5F5F5F",
"z  c #405969",
"x  c #415B7C",
"c  c #5B6B6E",
"v  c #626464",
"b  c #686868",
"n  c #696B6D",
"m  c #6F7172",
"M  c #6D7175",
"N  c #697B7F",
"B  c #717171",
"V  c gray48",
"C  c #7D7E7F",
"Z  c #CE577B",
"A  c #AD927D",
"S  c #3F5098",
"D  c #136594",
"F  c #2342A2",
"G  c #5A5D8B",
"H  c #597C92",
"J  c #4051A2",
"K  c #506AA6",
"L  c #6468A7",
"P  c #7175B4",
"I  c #3847C2",
"U  c #3E49CB",
"Y  c #3F48CC",
"T  c #1472C6",
"R  c #3C72CF",
"E  c #3B7DD0",
"W  c #7998A1",
"Q  c #3A99D2",
"!  c #7981C3",
"~  c #69BCED",
"^  c gray53",
"/  c gray56",
"(  c #92ABB1",
")  c #A5A5A7",
"_  c #AFB6BB",
"`  c #C1BFBE",
"'  c #858BCC",
"]  c #A5DCF5",
"[  c #C6CACE",
"{  c #D6CBC3",
"}  c gray84",
"|  c #E7DBD1",
" . c #DFDFE0",
".. c #D3DDE8",
"X. c #E6E6E6",
"o. c #EAEBEB",
"O. c #EEEFF0",
"+. c #FBFAF7",
"@. c #F8FCFE",
"#. c white",
/* pixels */
"              X                                                   ",
"                                                                  ",
"                                                                  ",
"                                                                  ",
"                                                                  ",
"                                                                  ",
"                                                                  ",
"                          q           p                           ",
"                          x x n     x k                           ",
"                          H A D H x D e                           ",
"                        b H Z Q T E R a X                         ",
"                        [ t C Q T R Y D q                         ",
"                        M D Q Q _ Q Q ~ H                         ",
"                        X D Q @.m v ] C a +                       ",
"                        g D Q @.| ` ] { t V                       ",
"            O.` _ _ _  ._ 0 ~ ] ..~ x W D [ +.B                   ",
"          b [ [ ( } } ( _ x D D Q Q ) D x _ W W n                 ",
"        2 _ _ W [ W W ( ( C a 9 0 D t a ( ( ( ( H ` f             ",
"_ _ ` ( _ ` ( ( [ ( W W W x D Q m ; 7 t a C W ( W W [             ",
"[ [ [ _ ( _ ( ` _ ( ( a D Q T Q X.; - t t 0 W W W ( H             ",
"H W H ( ( W W ( W W W 0 D t : Q #.{ x W 8 # = / _ _ (             ",
"6 c W H W ( W [ W N 4 < > / t Q ] ..H +.&         & +             ",
"        * l 5 h &         + t Q D 0 D D X                         ",
"                            x t 0 a D t ,                         ",
"                          3 9 t t W H $ o                         ",
"                      G ! 0 z O   % %                             ",
"                    + P Y F 1                                     ",
"                      + J Y L                                     ",
"                        r I Y +         w =                       ",
"                          y U i     j o.x d                       ",
"                          . u t D t H K S @                       ",
"                            . * s H H ' Y                         ",
"                                                                  ",
"^                                                                 "
};
