/* XPM */
static const char *player_game_left[] = {
/* columns rows colors chars-per-pixel */
"52 52 37 1 ",
"  c black",
". c #070707",
"X c #0B0909",
"o c #0F0D0D",
"O c #13100F",
"+ c #111111",
"@ c #151414",
"# c #191616",
"$ c #1D1D1D",
"% c #211F1F",
"& c #2E2726",
"* c #35302F",
"= c #3F3938",
"- c #5A4038",
"; c #474545",
": c #585251",
"> c #7B5A4C",
", c #676262",
"< c #676565",
"1 c #7B726E",
"2 c #9C7564",
"3 c #AE8E79",
"4 c #D58777",
"5 c #878585",
"6 c #8B8A89",
"7 c #A4A3A3",
"8 c #BAA9A2",
"9 c #BCBCBC",
"0 c #C8A38B",
"q c #F3A490",
"w c #DEBAA0",
"e c #FAC7A6",
"r c #FDDBBA",
"t c #D3D3D2",
"y c #FFF2D0",
"u c #F3F3F2",
"i c white",
/* pixels */
"            &:;;;;;::;==*=;====&.                   ",
"            #*%%%###ooo######%&&&%%#                ",
"             %%%#%#%%%%%%%%%%%####%%%#o  o$         ",
"             %%%%%%%%%%%%%%#%%%%%%%#%##%%  o        ",
"             ooooo     oo##%%%%%%#%%%%###%*         ",
"             oo#%o%*&&&&o    o#%%%%%######&%        ",
"           o *-=*=::--:::&=-%o  oo#%%%%#o#%         ",
"           % ##*=*&&&&&&&*&&=-=*%#  o%%%%%%         ",
"          .% &%**&*&**&******&**=-:*   ##%#         ",
"          $oo=*=-***&&&&*&&&&&&&&&=-*#o  o      .   ",
"          @ o%%%===-==-=**&&&&&&&&%#&&&#o           ",
"                   oo#%&*=-==*&&&%%%%%%%%#          ",
"          %;;:;;=*&&&%#oo o#&=-=&&%%%&%%&%          ",
" o&=:,111,1,;*%%%5<#%%&===*%oooo##%&%%%%%%          ",
" o%%%#####  o->>:i8>-%o   o%&*&%ooo%**&%&#          ",
"     oo#o &3ewww3w0wewww3>&o  #&*=&  o&&&# .        ",
"   .X   #o->:&=02313w2*>221>=#   #*=&o  ##          ",
"        ******=>>02>2:%*%%%&*&%o*o o*;*#   O        ",
"        =:,,,,*=>qq3>*=,:,,:;=& >> o o&;*#          ",
"        #%&&&%&:>qeee>o%=*=*=*% >> %%o o&;*         ",
"   .      oo#%-=>qqqew= o#%#o  *e2 ***#  #=;o       ",
"         --#->-#2q44qe0>>>-oo#>wr3 *==&#   &;%      ",
"         >= >2*-qqqq40w0302  =0er3 ==&o     o*=     ",
"        o1* -2*4q4qe42ee302  =wey2 ==o#4e2# o %=o   ",
"        #2- 33o>-&-242wyw03  >ery>o:* 3y4q2     %   ",
"        %12>y0  && o-*0rrrw>-wrry=*,*#>& *2  .      ",
"        =-wyyr2->>>=*>eeeryuuyyu2 ;:&#oo>->         ",
"      o ; ;w0w033300wrreeerwwry0o&:;%  -q2-         ",
"        :o%1o#&&&%%##o%-1ww&o&=o#::;#  4q>          ",
"        1*:1o240q0042>-o#0w: *%*:::=#2qq-           ",
"       o,#12%*>22>>>>2222002#:,:::,=o>4&            ",
"      Xo: *>32::,13300333233%*,:;::;#o              ",
"        % #3yyr0wyyrrrw03120>o:::;,=o               ",
"          o1rrr33rwwew032112= #:*o%*                ",
"           &133=*3000332>=*#   o&                   ",
"             #&o *=;-=&&#   #&#                     ",
"                        o%%&:::=o                   ",
"             +  oo% :w6 ==&;:*%#o                   ",
"             o   &* ti6 *%&=o%---                   ",
"             #0& =#%ii, =##%2eerr0%                 ",
"             0e% *  ;;  ;o >rrrerre-                ",
"            #w3&        *o qrreeeereo               ",
"            *3>%  3r9t9o   qrereeeqq2               ",
"  X         &>oo ot6*7i%   4eerrrre->               ",
"             &-*  =*&-;    2qq4ee4e>#               ",
"              >= ##oo# o#  -e2%4q-e3    X           ",
"             .   ****=;;;% oq2 4e#3*                ",
"              o# %&%o%;;;%o &% >2   .               ",
"               . %;*  *;=*%o                        ",
"                 o#o    oo#%#                       ",
"               oo1,=#  :6;%#o                       ",
"              . *61:& #391:*%                       "
};
