/* XPM */
static const char *player_02[] = {
/* columns rows colors chars-per-pixel */
"31 47 79 1 ",
"  c #020203",
". c #080C10",
"X c #141814",
"o c #220C04",
"O c #1F211B",
"+ c #332012",
"@ c #3F2C1D",
"# c #25351D",
"$ c #0F1A2A",
"% c #22272D",
"& c #303133",
"* c #7F090E",
"= c #703E12",
"- c #645222",
"; c #7B6826",
": c #3A3D41",
"> c #2F435D",
", c #484A4C",
"< c #525557",
"1 c #785B48",
"2 c #626464",
"3 c #6F7172",
"4 c #7D7E7F",
"5 c #A4162B",
"6 c #A24915",
"7 c #825027",
"8 c #BE5D29",
"9 c #917E2D",
"0 c #90603C",
"q c #D0723F",
"w c #BD345B",
"e c #8B6D59",
"r c #A76A43",
"t c #A37755",
"y c #CE577B",
"u c #B38006",
"i c #A39136",
"p c #B7A33B",
"a c #D39C0B",
"s c #F4B314",
"d c #BB845E",
"f c #9C816C",
"g c #AD927D",
"h c #DD8657",
"j c #DEAF46",
"k c #CB9672",
"l c #F29968",
"z c #F9D15A",
"x c #F5719D",
"c c #8B8B8C",
"v c #989899",
"b c #BBA391",
"n c #92ABB1",
"m c #A5A5A7",
"M c #B8B2AA",
"N c #AFB6BB",
"B c #D7A682",
"V c #D8B99F",
"C c #F4AE83",
"Z c #C1BFBE",
"A c #F0C095",
"S c #F6D0A7",
"D c #FDE3B6",
"F c #C6CACE",
"G c #D6CBC3",
"H c gray84",
"J c #E7DBD1",
"K c #FFEECC",
"L c #DFDFE0",
"P c #D3DDE8",
"I c #E6E6E6",
"U c #EAEBEB",
"Y c #F8F4E3",
"T c #EEEFF0",
"R c #EDF6FB",
"E c #F4F4F4",
"W c #FBFAF7",
"Q c #F8FCFE",
"! c white",
/* pixels */
"!!!!!!!!!!!!!!!!!!!!!!!!!!!!!!!",
"!IIIIIIII!!!ywyyyyJ!!!!!IIIIIII",
"!IIIIIIII!IwyxxxxywT!!!!IIIIIII",
"!IIIIIIII!!VyxxyxxwV!!!!IIIIIII",
"!!!!!!!!!UHyxxykCxwbRIII!!!!!!!",
"!!!!!!!!!IQwyykDSywGRIII!!!!!!!",
"!!!!!!!!!IRVhwdSA5wRUIII!!!!!!!",
"!!!!!!!!!IUTwCDSS8HRIIII!!!!!!!",
"!!!!!!!!!URQm6DKA7LQIIII!!!!!!!",
"!!!!!!!!!RV3v@0qd<:PRUII!!!!!!!",
"!!!!!!!!Jw64WLHgc4,udRTI!!!!!!!",
"!!!!!!!T5hsFJYGIMc;sqdRU!!!!!!!",
"!!!!!!!y5aam!!JG4XaCS8bQ!!!!!!!",
"!!!!!!!wDz+.f334, alAlrR!!!!!!!",
"!!!!!!JlKzO%a6vY4. dSA6b!!!!!!!",
"!!!!!!BAAh%#zVvW3X 7hll6L!!!!!!",
"!!!!!!qAl8O#zBmYJ% Zt8lhd!!!!!!",
"!!!!!VqCqk>OzVvYY&<!Z6hl6!!!!!!",
"!!!!!qCl6E:OzBmYJ&2!Q6SC6!!!!!!",
"!IIITkDS6!:Ozkcmv&OQJdDqgRIIIII",
"!IIIRGlKqb>XzAfGJ& NkACrRUIIIII",
"!IIIIUkDlbjssc3GJ,uCkDqJRIIIIII",
"!IIIIRVCStuu@%O&#4z=Khb!IIIIIII",
"!IIIIUTkS6=;$%O. $v: =!!IIIIIII",
"!IIIIIQbduia&&&O. dD@n!!IIIIIII",
"!IIIIIRdrmIsX&&&&8hShY!!IIIIIII",
"!IIIIUI6fWUa.&&&&% Ohd!!IIIIIII",
"!IIIIUU*fWLa %&&&&&Xo7!!IIIIIII",
"!IIIIUE1ZWLa .&&&&&&$:!!IIIIIII",
"!IIIIIQmZWLi7.&&&&&&&XF!IIIIIII",
"!IIIIUL3YYLeu.&&&&&&&X<!UIIIIII",
"!IIIIUIvWYLfu O&&&&&&&.HWIIIIII",
"!IIIIEmGYYTVu .&&&&&&&X,QUIIIII",
"!IIIIEcJYYWVu .X&&&&%%$+GTIIIII",
"!!!!!!vJYYWNu+..X&&%@-uaY!!!!!!",
"!!!!!!mGYYYmp+.. .+9uie2L!!!!!!",
"!!!!!!!vWYYHjo.o=ua93vHvU!!!!!!",
"!!!!!!L2WYWEjaasYv:vWYIcmE!!!!!",
"!!!!!!Z:3MJ41SASRQ4v!Wc ,F!!!!!",
"!!!!!!mvco. 2!RTITE4  o2vZ!!!!!",
"!!!!!!!!!8trdQIIIIT!e=q8W!!!!!!",
"!!!!!!!!!BDltQIIIIIQghA8G!!!!!!",
"!!!!!!!!!BShrQIIIIIRb8S8J!!!!!!",
"!!!!!!!!!kSqZRIIIIIUR0Clt!!!!!!",
"!!!!!!!!!BSrTTIIIIIIRM8A6!!!!!!",
"!!!!!!!!LdDqdRIIIIIIURrCrQ!!!!!",
"!!!!!!!H$ @6tQIIIIIIIQ1hCdQ!!!!"
};
