/* XPM */
static const char *player_game_down[] = {
/* columns rows colors chars-per-pixel */
"59 56 43 1 ",
"  c black",
". c #060606",
"X c #080707",
"o c #090909",
"O c #0F0D0D",
"+ c gray7",
"@ c #151313",
"# c gray8",
"$ c #191411",
"% c #191616",
"& c #181818",
"* c #1C1919",
"= c #1D1C1C",
"- c #211F1F",
"; c #272423",
": c #2E2726",
"> c #35302F",
", c #343130",
"< c #3F3938",
"1 c #573E36",
"2 c #5A4038",
"3 c #474545",
"4 c #4A4949",
"5 c #58524F",
"6 c #585251",
"7 c #7B5A4C",
"8 c #676262",
"9 c #7B726E",
"0 c #9C7564",
"q c #AE8E79",
"w c #D58777",
"e c #8B8A89",
"r c #A4A3A3",
"t c #BCBCBC",
"y c #C8A38B",
"u c #F3A490",
"i c #DEBAA0",
"p c #FAC7A6",
"a c #FDDBBA",
"s c #FFF2D0",
"d c #E6E6E6",
"f c #F3F3F2",
"g c white",
/* pixels */
"                   -O O          O                         ",
"                    %-::>>:>>>:::-X                        ",
"              -<389ee8888886888889ee863:O   #    o       . ",
"            3633<<<>-%%OOO%%OO%O%-:><<3336-                ",
"            >:--%%O%%%%----%--%--%%%%%--:>%                ",
"          @ --%%----------------------%-%-                 ",
"            %--------%%%%%%%%%%%%%--------                 ",
"            OOOOO     OOOO OOOOO     OOOOO      O          ",
"             OO%%%<2<<22622622622<22:%%%OO      O          ",
"            %><<>22<<<<<<<<><<<<<><22<><<-                 ",
"            %%-><>::::::::::::::::::>><:%%        O        ",
"            %:-:>:>>>>>>>>>>>>>>>>>::><-:-                 ",
"            %><>2>>>>>>:>:>:>:>:>>>>><2:<-                 ",
"            --:-><<<>><2<2<<2<2<>>><<<:-:-OOO              ",
"                  OOO%%%%%%%%%%%%OOO        %              ",
"     =-    -:>>>>--%%%OO  OOO OO%-%%-:>>>>-O    *          ",
"     O:<68898633<<<32>:66299627<:22<<<326689863>%   .      ",
"  :<666663>%  %--:<22:2q79qq0707:<2<>--%O O:<666663>O      ",
" %%--%%OOO   -:><<336<-><60q72:::3333<<>-O   OOO%%--+      ",
"       OO   O:3366666>-0qwwuwqq2%3666663<%   OOO           ",
"+          O %--->::  0puuuwuupy- -->---%OO                ",
"     .-   -: O %-OO%7qiywwwwwuyiy7:OO-%OOO%:    O          ",
"        2O < <60i0::ppy0wwwwww0qpa7%7iq72%-- 6>            ",
"       2a0 > >27aq  ipq2wppppu76pp2 2sq<2 - >fu .          ",
"       :uu <O>:7sq  pp27uwwwwuw:ya2 2sy-<%>O0p0 Oo         ",
"       %20O<%O%9si  ap:ww::2%7u:0s7 7si%%O<O72: ++         ",
"        2:O3: %qsa<7ap<%2O:2OO2 ysq-isa< O3-O2% o          ",
"        27 >3O 8asaapay2>:22>:<0ppaaasq- >3 27             ",
"         w2%3: Oisapasssssaaassssapaas< %<::w: .           ",
"         7w >>%-yppai6>%      O:2qapip3O:< 2w              ",
"         :7O:>:%9yyi< 227qyuw727%Oyiyy::>>O20              ",
"           %%<<O:0yy00q000000000q0qyq6 ><:%%               ",
"         . O%3<% 7yqqqqqqq780qqqqqqy0- >3:O  o             ",
"            %<<O <62qqyiasiyssayqq962O ><:  .              ",
"             %<    Oyqqyiay0apiqqy9    -:                  ",
"              % ->% 6qyqyi07yyyqyq:                        ",
"               %3<6< %6797:O79972O ---                     ",
"               <6:%<>  %       OO :-->:                    ",
"          1iy>::>3  %>O%% >3O  O%>:O->>>-                  ",
"         yssspp7 -- -3<>O>fg8 >->3- %>>><>                 ",
"        7gsi77pp2 % :<<6O:ggt <6<3>  :>->-                 ",
"        7sp2 OqpqO O3336O tde :6333- O-:>O2X               ",
"        :2<   2ii% -633<  O   O3333> O>>O-y2               ",
"        a- :q:>as- ->O  3rrtr3 OO     %O >p0               ",
"       .sq 0p>7ss:  -% Odr-<e3        O- <s7               ",
"          00: >siO  --  rt8%  O%--    %7-%q-               ",
"         ;g0        -%  O3: %%-:>% >e6 7-                  ",
"          $@ & o,O %<<>>-  <-O-:- 3eee                     ",
"                 - %<3333<3: %-:OO9e9eo                    ",
"                   O>33333:  %--  3685                     ",
"                    -<663-   O%% 383>                      ",
"                    O%--      O O9rt<                      ",
"                            .   -9e8     oo                ",
"                    %-OOOO       X                         ",
"                     -%OOO                                 ",
"                     OOOO :4                               "
};
