/* XPM */
static const char *player_game_up[] = {
/* columns rows colors chars-per-pixel */
"44 57 26 1 ",
"  c black",
". c #060505",
"X c #090909",
"o c #0C0B0A",
"O c #0F0D0D",
"+ c #100E0E",
"@ c #111010",
"# c #151313",
"$ c #151414",
"% c #191616",
"& c #1D1818",
"* c #211F1F",
"= c #262525",
"- c #2E2726",
"; c #35302F",
": c #3F3938",
"> c #5A4038",
", c #474545",
"< c #585251",
"1 c #7B5A4C",
"2 c #676262",
"3 c #7B726E",
"4 c #AE8E79",
"5 c #8B8A89",
"6 c #A4A3A3",
"7 c #BCBCBC",
/* pixels */
"                                            ",
"                    OO%%O    O$             ",
"       X    .  O;::,::::::,;*               ",
"             O;:;-*%%OO%%**;::*             ",
"            *:-%%OOOOOOOOOO%%*:;            ",
"           *:*%%O%O%O%OO%O%OO%%;:           ",
"          *:%%%O%OO%OOO%OO%O%%%%;: #        ",
"        XO:*%%%OO%OOO%OO%OOOOO%%%;; .       ",
"         :;%%%OOOOO%OOOOOO%OOO%%%*, &       ",
"         :*%%OOOO%OOOOOOOOO%OOOO%%:* .      ",
"        *;%%OO%O%OOOOOOOOOOOO%OO%%-;        ",
"        --OO%OOOOOOOOOOOOOOO%OOO%O*;        ",
"      O ;*O%OO%OOOOOOOOOOOOOOO%OOO*;O       ",
"     *O -*OOOOOOOOOOOOOOOOOOOOOOOO%;O -     ",
"    *-  ;%O%OOOOOOOOOOOOOOOOOOO%OO%;% *-   X",
"   .;*  -*OOOOOOOOOOOOOOOOOOOOOO%O%-O %-*   ",
"   --% O-*OO%OOOOOOOOOOOOOOOOOOOOO%-% O*;   ",
"   ;*% %%*OOOOOOOOOOOOOOOOOOOOOOOO%*% O*-@  ",
"  %;*%O-O*%OOOOOOOOOOOOOOOOOOOOO%O-O-OO**;  ",
"  --%OO- %*%O%OOOOOOOOOOOOOOOOOOO** -%O**;  ",
"  ;*%%O:O **OOOOOOOOOOOOOOOOOO%O%*O >%O**:  ",
"  :*%% >; O-*%OOOOOOOOOOOOOOOOO**% %1OO*%:X ",
"  ,*%% ;>  O**%OOOOOOOOOOOOOO%**%  ;> %%*:  ",
"  ,*%* O<%  O%***%%OOOOOO%%%***O   >- %*%,  ",
"  ,;%*O >>    O%*************O    ;<OO%%*,  ",
"  ;:%%%O%<;       OOOOOOOOO      %1- O%%-,  ",
"  *,%*%OO*1-    O               O<:OO%*%;:  ",
"   <*%*OOO;>:%      OO OO     O->:%OO%**,-  ",
"   ,:%*% O;:<1>-O           *>1<,;% %*%-,O  ",
"   %<***O --*:<1<--;--*--;->31:--;OO***::   ",
"  ; ,:***OO***%-::>1111111:>;****% %*%;< O  ",
"  4O <;%** O*-*%%***-;;-***%%%--% %***,- 3  ",
"  ;1 -,*%**O O-;*%%%%%%%%%%%-;%  %*%*:, ;1  ",
"   +% :,*%**O O-;----***---;;% O%*%*:,O - . ",
"       ,,*%**%O O%*------**O  %**%*:,%      ",
"        -,;*%*%%O          OO%*%%-::O       ",
"         +,,;*%%%*%%%O%%%%**%%%-:,-         ",
"           -,,;**%*****%***%*;,,:%       .  ",
"             *:,::;-*****;;:,,;O   .        ",
"               O%-:,,:::,,;*O    -;         ",
"             %%O      O      **  *1>        ",
"            **-,<:;*%%OOO*;,<<<;O -1        ",
"           *-*%;,<,,,,,,,,<,::,:-%%>        ",
"         O*;;* *:,:::::::,:;*%*;-**- .      ",
"        *%:::% ;:;::::::::;:;%O*---  O      ",
"      %O*-,,;O%,,::::::::::,,:%O*-% X       ",
"      > *-,<- -<,,,,,,,:,:,,<<; OO          ",
"     O1 %*;:O ;<,,,,,,,,,,,,,<;             ",
"      1- %OO  *,,<,,,,:,,,<<,:  .           ",
"      O- %%%O  O*:,,,<<<<,;*O  o            ",
"                O%%**%%%OO                  ",
"           #    *;;-*%OO%%O%%O              ",
"           X%    %**O O%%**%%%              ",
"            =  O%O      -*OO                ",
"            .    OO O  O* *;;%              ",
"               &%O  O    %,25<              ",
"                <<,,;    :3673              "
};
