/* XPM */
static char *c65b0cfcf7224823b6ccb6c6974f414cMoVxhWdKXTwR107Q[] = {
/* columns rows colors chars-per-pixel */
"32 32 47 1 ",
"  c #656C17",
". c #676E18",
"X c #72751B",
"o c #73761C",
"O c #74781F",
"+ c #75791F",
"@ c #696E21",
"# c #787B21",
"$ c #7A7E23",
"% c #74762B",
"& c #75772C",
"* c #76782D",
"= c #76782E",
"- c #63613F",
"; c #797B30",
": c #7A7C30",
"> c #676442",
", c #6D6A47",
"< c #6B6755",
"1 c #7B7B5F",
"2 c #7E7E62",
"3 c #7B796B",
"4 c #7C7B6E",
"5 c #7D7B6F",
"6 c #7E7D71",
"7 c #7F7E72",
"8 c #807F72",
"9 c #827F75",
"0 c #7E8023",
"q c #7F8124",
"w c #84836A",
"e c #848468",
"r c #858569",
"t c #86856C",
"y c #818074",
"u c #858378",
"i c #848279",
"p c #878679",
"a c #86857B",
"s c #87867D",
"d c #88867D",
"f c #89887C",
"g c #8A887D",
"h c #8C897E",
"j c #8D8C83",
"k c #8E8C83",
"l c #8E8D84",
/* pixels */
"XX&&&&&&&&&&&&XXXX&&&&&&%%&%%&XX",
"X=888888888888=XX&434434434434&X",
"Xd888888888888dXXi444444444436iX",
"Xd888888888888dXXu444444444463iX",
"X83y8888888888dXXi444444444436iX",
"X><a8888888888dXXi444444444463iX",
"XXs88888888888dXXi444444444436iX",
"X=a88888888888dXXi444444446363iX",
"Xs888888888888dXXi443636444444iX",
"Xd888888888888dXX6446363444444iX",
"Xs888888888888dXXi444436444444iX",
"Xs8888888888y2tXXi411463444444iX",
"Xa8888yy88888:q+X62#;666363644iX",
"X8yyiyyyyyuyyy$q#6##6766666666wX",
"X>iiuuuuauuuuu +#>#@y96676669iXX",
"XX>>>>>>>>>>>>.+#X. >>>->>>>>>XX",
"XX&&&&&&&&&&&&X. X========****XX",
"X&888888888888*XX=aapppppppppp:X",
"Xy888888888888dXXjapppppppppppjX",
"Xd888888888888dXXjppppppppppppjX",
"Xd888888888888dXXjppppppppppppjX",
"Xd888888888888dXXjppppppppppppjX",
"Xd888888888888dXXlppppppppppppjX",
"Xa888888888888dXXjppppppppppppjX",
"Xa888888888888dXolpppppppppppplo",
"Xd888888888888dXolppppppppppppjX",
"Xsy88888888888pXolpppppppppppplo",
"Xs888888888y88dXohpppprpppppppjX",
"Xuyy8yy8y88yyypXohdppr+ppppppplo",
"XyyyyyyyuyyyyyyXodpprqqggggppgao",
"X>uuuuuuuuuuuu>Xo>hh+q@hgghhgg,X",
"XX>>>>>>>>>>>>XXXo>,++,,,,,,,,XX"
};