/* XPM */
static char *_cd39d735a134a63a2059673b98c9694Vj5TUtW77Pf3NgIT[] = {
/* columns rows colors chars-per-pixel */
"32 32 144 2 ",
"   c None",
".  c #1D0E07",
"X  c #1F1007",
"o  c #25160D",
"O  c #26180F",
"+  c #291A0F",
"@  c #3E1F0F",
"#  c #271910",
"$  c #2A1D14",
"%  c #552E16",
"&  c #542F19",
"*  c #563017",
"=  c #56321A",
"-  c #59351D",
";  c #5B381E",
":  c #5B3720",
">  c #573823",
",  c #5D3A23",
"<  c #5C3D29",
"1  c #603E23",
"2  c #613F28",
"3  c #5E422D",
"4  c #624126",
"5  c #64442B",
"6  c #68472D",
"7  c #674A2E",
"8  c #684A2F",
"9  c #624631",
"0  c #644935",
"q  c #6B4E31",
"w  c #654E3B",
"e  c #6B4F3A",
"r  c #704F34",
"t  c #6D5134",
"y  c #67503D",
"u  c #6C523D",
"i  c #715437",
"p  c #73553A",
"a  c #76593E",
"s  c #785B3F",
"d  c #6D5541",
"f  c #6E5945",
"g  c #6E5E4C",
"h  c #735641",
"j  c #745A44",
"k  c #795D43",
"l  c #745C4A",
"z  c #795E4B",
"x  c #7C6145",
"c  c #73614E",
"v  c #7C624C",
"b  c #746452",
"n  c #7B6553",
"m  c #7D6956",
"M  c #7C6C5A",
"N  c #7F715F",
"B  c #81664A",
"V  c #836A4D",
"C  c #866D51",
"Z  c #886F52",
"A  c #816E5C",
"S  c #877053",
"D  c #8A7155",
"F  c #82715E",
"G  c #8D775A",
"H  c #8E795C",
"J  c #917A5D",
"K  c #837462",
"L  c #897666",
"P  c #857867",
"I  c #8B7867",
"U  c #897966",
"Y  c #867868",
"T  c #8A7868",
"R  c #8D7B6B",
"E  c #8C7B6B",
"W  c #8B7D6C",
"Q  c #8D7C6C",
"!  c #8E7C6C",
"~  c #8E7C6D",
"^  c #8A7D6B",
"/  c #917B60",
"(  c #927C60",
")  c #927D60",
"_  c #937D60",
"`  c #947E61",
"'  c #947E62",
"]  c #947F62",
"[  c #947E63",
"{  c #947F63",
"}  c #957F63",
"|  c #967F63",
" . c #947F64",
".. c #957F64",
"X. c #967F64",
"o. c #8D816F",
"O. c #8D816F",
"+. c #958063",
"@. c #948064",
"#. c #958064",
"$. c #958065",
"%. c #968064",
"&. c #968165",
"*. c #968166",
"=. c #988266",
"-. c #988468",
";. c #998469",
":. c #8F8270",
">. c #8F8272",
",. c #8E8172",
"<. c #918576",
"1. c #938676",
"2. c #938777",
"3. c #948877",
"4. c #938778",
"5. c #958879",
"6. c #958A7A",
"7. c #958B7B",
"8. c #968A7B",
"9. c #968B7B",
"0. c #968B7D",
"q. c #978C7D",
"w. c #948879",
"e. c #988D7E",
"r. c #998C7F",
"t. c #998D7F",
"y. c #9A8F80",
"u. c #9A8F82",
"i. c #9B9182",
"p. c #9B9183",
"a. c #9C9183",
"s. c #9D9285",
"d. c #9D9286",
"f. c #9E9386",
"g. c #9E9486",
"h. c #9F9587",
"j. c #9F9588",
"k. c #A09589",
"l. c #A09689",
"z. c #A09789",
"x. c #A1968A",
"c. c #A1978A",
"v. c #A1978B",
"b. c #A1988A",
/* pixels */
"                                                                ",
"  $ < , :                                             + : : <   ",
"o l M m 9 = * * * * -   o * * * * * * *   o * * * * * : d n M 0 ",
"$ n K F e 8 i i i i x 8 p s i i i i i a 6 p a i i i i 8 l A P d ",
"$ K >.W h i B V V V Z p B Z V V V V V Z p x V V V V V u n W 1.l ",
"$ L 5.1.j a V V Z Z G k V D V V V V V G a x Z V V V V i A 1.0.v ",
"$ R t.5.l a S H H H } B Z H G H H H H H k B G G G G G h A 4.y.n ",
"$ R f.a.z a D H H H } V D ( H H H H H / k V H H H H H k K t.f.n ",
"$ ~ z.z.v k H #.#.#.-.V D #.X.X.X.X.X.#.x Z #.} } } } k ^ z.z.n ",
"$ ~ b.z.v a G X.#.#.-.V D #.#.#.#.#.#.#.x Z #.X.#.#.#.k L j.z.m ",
"$ ~ z.h.z a G } X.} =.B D #.} } } } } #.k Z } } } } } k L h.z.n ",
"$ I p.t.j p D J J J +.B D ( J J H H H } k Z ( H H H H a K q.f.n ",
"# L y.5.h i D J J J } B D ( J J H H H } k Z J H H H H a F 5.p.n ",
"# K 3.>.u i S J H H J k Z J G G G G G J a V J H G G G a m o.5.n ",
"O F 1.o.u q x V V V Z a B Z V V V V V D i k Z V V V V u m ~ 5.v ",
"o A >.^ q 8 x V V V Z r k Z V V V V V Z q s Z V V V V q b Y >.l ",
"o v K F 0 8 x V V B V q a x k a a a a B q a V B B B x e l F P d ",
"o : : : = 6 p i i p s 4 4 5 2 5 5 5 : q 4 6 i i q q q 2 : : - : ",
"o m 5.1.e % % % % % % % % % c I I ^ e * % % % % % % * & n 1.5.l ",
"o n K M 9 : 5 5 5 5 5 - - = d 0 % u 5 - * 4 7 6 6 5 5 - d M P u ",
"o c N M 5 , t i i i p 1 4 ; w m 5 w < - * 8 i t t t t : u m K e ",
"O l m b 5 : q t t t p 1 4 ; 0 g 3 w < - * 7 t q q q q ; w b M 0 ",
"o f b b 3 : 8 t q q i 1 4 : 3 w l f , : * 6 t q q q q ; w c b 9 ",
"o u c c < : 8 q q q i 1 4 6 - % % % : 7 ; 6 t q q q q - 0 g b 3 ",
"X w f f , - 6 8 8 q t , 4 q 6 5 5 5 7 q ; 6 t 8 7 7 q - 9 f g < ",
"X w f d , - 5 7 7 7 t , 4 q q q q q q q ; 6 t 7 7 7 7 - 9 f l < ",
"X 0 f u , - 6 7 7 7 t , 1 8 8 8 8 8 8 8 - 6 q 7 7 7 7 - 3 u f , ",
". : < < , : : : : : 8 : - : : : : : : : * 6 6 : : : : : , , , & ",
". f K K K 9 % * * - - - - - - - - - - - - - - - * * % f K N K 9 ",
"X 0 g g b 3 u m m M M K P P P Y Y P P P P K N M M m 3 w c g g < ",
". < 0 0 d < 3 0 0 w w w w w w w y y y y w w w w w w > 0 y 0 0 - ",
". @ @ @ @ @ @ @ @ @ @ @ @ @ @ @ @ @ @ @ @ @ @ @ @ @ @ @ @ @ @ @ "
};